<?xml version="1.0" encoding="UTF-8"?><svg id="a" xmlns="http://www.w3.org/2000/svg" viewBox="0 0 133 133"><path d="M131.5,101.72V2.5c0-.55-.45-1-1-1h-40.52c-.43,0-.82.28-.95.7s.02.87.38,1.12c3.94,2.76,6.3,7.29,6.3,12.12,0,8.18-6.65,14.84-14.83,14.84s-14.81-6.66-14.81-14.84c0-4.83,2.35-9.36,6.3-12.12.35-.25.51-.7.38-1.12-.14-.42-.52-.7-.96-.7H31.28c-.56,0-1,.45-1,1v37.76c-3.13-3.15-7.42-4.97-11.95-4.97-9.28,0-16.83,7.54-16.83,16.81s7.55,16.83,16.83,16.83c4.53,0,8.82-1.82,11.95-4.97v37.76c0,.56.44,1,1,1h37.76c-3.15,3.13-4.97,7.42-4.97,11.95,0,9.28,7.54,16.83,16.81,16.83s16.83-7.55,16.83-16.83c0-4.53-1.82-8.82-4.97-11.95h37.76c.55,0,1-.44,1-1Z" style="fill:none; stroke:#ff1761; stroke-miterlimit:10; stroke-width:3px;"/><path d="M129.5,100.72h-39.52c-.43,0-.82.29-.95.7-.13.42.02.87.38,1.12,3.94,2.76,6.3,7.29,6.3,12.13,0,8.18-6.65,14.83-14.83,14.83s-14.81-6.65-14.81-14.83c0-4.84,2.35-9.37,6.3-12.13.35-.25.51-.7.38-1.12-.14-.41-.52-.7-.96-.7h-39.51v-39.51c0-.44-.29-.83-.7-.96-.42-.13-.87.03-1.12.38-2.76,3.95-7.29,6.3-12.13,6.3-8.18,0-14.83-6.65-14.83-14.83s6.65-14.81,14.83-14.81c4.84,0,9.37,2.36,12.13,6.3.25.36.7.51,1.12.38.41-.13.7-.52.7-.95V3.5h36.76c-3.15,3.12-4.97,7.42-4.97,11.94,0,9.28,7.54,16.84,16.81,16.84s16.83-7.56,16.83-16.84c0-4.52-1.82-8.82-4.97-11.94h36.76v97.22Z" style="fill:none; stroke:#ff1761; stroke-miterlimit:10; stroke-width:3px;"/></svg>