<?xml version="1.0" encoding="UTF-8"?><svg id="a" xmlns="http://www.w3.org/2000/svg" viewBox="0 0 130 88.68"><path d="M.07,47.05c.63,6,5.45,10.78,11.46,11.36,3.41.33,6.75-.71,9.35-2.83v29.54c0,1.97,1.6,3.57,3.57,3.57h32.84c.42,0,.8-.26.94-.66.14-.4.02-.84-.3-1.11-2.76-2.28-4.21-5.78-3.88-9.35.47-5.06,4.48-9.14,9.54-9.69,3.11-.34,6.1.62,8.41,2.69,2.28,2.04,3.59,4.97,3.59,8.03,0,3.22-1.43,6.26-3.92,8.33,0,0,0,.01-.01.01-.06.05-.11.12-.16.18-.02.02-.03.04-.04.06-.04.07-.08.15-.1.23,0,.02,0,.03-.01.05-.02.07-.05.14-.05.22,0,.22.08.41.2.57.01.02.02.04.04.05.05.06.1.11.16.15.03.03.07.05.11.07.05.03.11.06.17.08.09.03.18.05.28.06.02,0,.03.01.05.01h33.27c1.97,0,3.57-1.6,3.57-3.57v-26.61c2.55,2.08,5.85,3.13,9.18,2.85,6.03-.5,10.91-5.22,11.61-11.22.42-3.66-.72-7.32-3.15-10.04-2.42-2.72-5.9-4.28-9.54-4.28-2.98,0-5.83,1.03-8.09,2.89V3.57c0-1.97-1.6-3.57-3.57-3.57h-33.08c-.42,0-.8.26-.94.66-.14.4-.02.84.3,1.11,2.49,2.05,3.91,5.09,3.91,8.32s-1.31,6.01-3.61,8.05c-2.32,2.07-5.32,3.02-8.46,2.66-4.99-.57-9.06-4.77-9.48-9.78-.29-3.54,1.16-7,3.89-9.26.33-.27.45-.71.3-1.11-.14-.4-.52-.66-.94-.66H24.44c-1.97,0-3.57,1.6-3.57,3.57v32.19c-2.27-1.86-5.11-2.89-8.09-2.89-3.61,0-7.07,1.54-9.5,4.23C.86,39.79-.31,43.42.07,47.05ZM4.77,38.44c2.04-2.27,4.96-3.57,8.01-3.57,3.23,0,6.26,1.43,8.32,3.93.27.33.71.45,1.11.3.4-.14.66-.52.66-.94V3.57c0-.86.7-1.57,1.57-1.57h30.61c-2.08,2.55-3.13,5.84-2.85,9.19.5,6.03,5.23,10.91,11.24,11.6,3.66.42,7.3-.73,10.02-3.15,2.72-2.42,4.28-5.9,4.28-9.54,0-2.99-1.03-5.83-2.88-8.09h30.69c.86,0,1.57.7,1.57,1.57v37.52c0,.42.26.8.66.94.4.14.84.02,1.11-.3,2.06-2.5,5.1-3.93,8.32-3.93s6,1.32,8.05,3.61c2.08,2.33,3.02,5.35,2.66,8.48-.58,4.98-4.79,9.05-9.79,9.46-3.54.29-6.99-1.16-9.25-3.89-.27-.33-.71-.45-1.11-.3-.4.14-.66.52-.66.94v29.01c0,.86-.7,1.57-1.57,1.57h-30.86c1.85-2.27,2.88-5.11,2.88-8.09,0-3.62-1.55-7.09-4.25-9.52-2.7-2.42-6.33-3.58-9.96-3.19-6,.65-10.75,5.49-11.31,11.49-.32,3.39.73,6.73,2.84,9.31h-30.45c-.86,0-1.57-.7-1.57-1.57v-31.94c0-.42-.26-.8-.66-.94-.4-.14-.84-.02-1.11.3-2.29,2.77-5.8,4.22-9.39,3.88-5.07-.49-9.13-4.52-9.66-9.58-.33-3.11.64-6.1,2.71-8.4Z" style="stroke-width:0px;"/></svg>